<svg version="1.0" xmlns="http://www.w3.org/2000/svg"
 width="667.000000pt" height="166.000000pt" viewBox="0 0 667.000000 166.000000"
 preserveAspectRatio="xMidYMid meet">
<g transform="translate(0.000000,166.000000) scale(0.100000,-0.100000)"
fill="#000000" stroke="none">
<path d="M146 1440 c-41 -13 -94 -68 -106 -110 -13 -47 -13 -1014 0 -1059 13
-46 65 -99 110 -111 21 -6 288 -10 680 -10 l646 0 44 23 c25 12 55 37 67 56
l23 34 0 537 0 537 -23 34 c-12 19 -42 44 -67 57 l-44 22 -651 -1 c-357 0
-663 -5 -679 -9z m443 -319 c27 -17 0 -31 -55 -29 -44 2 -58 -2 -75 -19 -19
-18 -21 -32 -20 -100 1 -54 -3 -85 -13 -98 -12 -17 -11 -22 8 -48 19 -26 21
-40 19 -158 l-2 -130 36 -15 c20 -9 47 -13 60 -9 32 8 48 -3 32 -21 -26 -32
-155 -1 -161 38 -1 7 -2 70 -2 141 l-1 127 -34 27 -34 27 29 22 c27 22 28 27
29 108 0 89 13 117 60 137 27 11 107 11 124 0z m633 -30 c28 -31 30 -39 28
-100 -4 -95 -3 -100 25 -113 33 -15 32 -30 -4 -51 -24 -14 -30 -25 -36 -72 -3
-31 -4 -89 0 -129 8 -84 0 -108 -45 -131 -36 -19 -104 -20 -119 -2 -16 20 -2
28 35 21 35 -6 94 18 94 39 2 219 6 266 22 283 15 17 15 21 2 39 -10 13 -15
40 -14 75 3 131 -3 140 -90 140 -59 0 -85 14 -59 32 8 5 41 7 73 5 52 -3 63
-7 88 -36z"/>
<path d="M1940 915 l0 -365 40 0 c38 0 40 2 40 30 0 36 3 37 43 6 90 -66 200
-60 282 16 56 51 79 116 73 202 -8 95 -51 160 -133 197 -72 33 -192 16 -234
-34 -7 -10 -17 -17 -22 -17 -5 0 -9 74 -9 165 l0 165 -40 0 -40 0 0 -365z
m342 -14 c39 -36 42 -42 46 -103 5 -71 -8 -106 -52 -147 -39 -37 -128 -41
-175 -9 -58 39 -73 68 -73 137 0 105 53 161 155 161 53 0 61 -3 99 -39z"/>
<path d="M3060 1075 l0 -65 -50 0 -50 0 0 -35 0 -35 50 0 50 0 0 -157 c0 -106
4 -166 13 -183 23 -46 106 -72 175 -54 18 5 22 13 22 43 l0 36 -52 0 c-72 0
-78 14 -78 183 l0 132 60 0 60 0 0 35 0 35 -60 0 -60 0 0 65 0 65 -40 0 -40 0
0 -65z"/>
<path d="M5710 1075 l0 -65 -50 0 -50 0 0 -35 0 -35 49 0 50 0 3 -170 c3 -167
3 -170 29 -196 29 -28 86 -40 143 -30 34 6 36 9 36 44 l0 37 -49 -3 c-74 -6
-81 10 -81 180 l0 138 60 0 60 0 0 35 0 35 -60 0 -60 0 0 65 0 65 -40 0 -40 0
0 -65z"/>
<path d="M3505 1004 c-52 -19 -111 -77 -131 -131 -20 -52 -15 -162 9 -209 37
-72 123 -124 207 -124 58 0 135 28 171 61 l33 30 -30 24 -29 23 -26 -22 c-72
-61 -158 -59 -221 4 -25 24 -38 47 -38 64 l0 26 181 0 182 0 -5 65 c-4 44 -14
78 -32 109 -48 83 -167 118 -271 80z m162 -70 c27 -17 48 -49 57 -86 l6 -28
-144 0 -145 0 10 32 c24 86 140 130 216 82z"/>
<path d="M4090 1009 c-14 -6 -40 -24 -57 -42 l-33 -31 0 37 c0 36 -1 37 -40
37 l-40 0 0 -230 0 -230 45 0 45 0 0 145 c0 124 3 151 19 183 34 66 126 85
172 36 23 -25 24 -32 27 -195 l4 -169 39 0 39 0 0 145 c0 201 22 245 120 245
89 -1 100 -26 100 -229 l0 -161 46 0 47 0 -5 173 c-4 160 -7 177 -29 218 -15
27 -38 51 -59 61 -69 35 -167 16 -211 -41 l-21 -26 -21 29 c-36 50 -123 70
-187 45z"/>
<path d="M5317 1006 c-21 -8 -47 -22 -57 -31 -26 -24 -43 -79 -35 -115 12 -55
41 -78 129 -105 90 -27 120 -50 114 -86 -7 -51 -108 -66 -169 -25 l-36 24 -28
-22 c-23 -19 -26 -25 -17 -43 31 -57 198 -81 272 -38 47 28 72 78 67 133 -7
62 -36 88 -133 117 -81 25 -114 47 -114 78 0 44 100 63 149 28 27 -20 27 -20
55 2 35 28 27 50 -28 77 -49 23 -114 25 -169 6z"/>
<path d="M6394 1004 c-126 -45 -183 -208 -119 -340 14 -29 39 -63 55 -74 89
-63 227 -66 297 -5 l28 23 -29 31 -30 31 -23 -22 c-33 -30 -116 -36 -163 -10
-50 28 -83 94 -76 154 3 26 12 61 21 78 36 70 139 93 208 46 l35 -24 29 30 28
30 -29 23 c-56 45 -153 57 -232 29z"/>
<path d="M2490 1002 c0 -4 41 -106 90 -226 50 -120 90 -224 90 -232 0 -23 -46
-118 -64 -134 -11 -8 -36 -13 -61 -12 -41 1 -43 0 -48 -31 -6 -39 5 -47 66
-47 57 0 97 19 123 57 10 15 71 163 135 328 l117 300 -40 3 c-22 2 -42 1 -44
-1 -3 -2 -32 -80 -65 -173 -34 -93 -65 -173 -69 -177 -4 -5 -13 6 -19 25 -6
18 -37 99 -67 181 l-56 147 -44 0 c-24 0 -44 -4 -44 -8z"/>
<path d="M4709 988 c5 -13 48 -117 96 -232 l86 -209 -22 -56 c-31 -79 -48 -94
-103 -94 -42 1 -45 -1 -51 -29 -9 -38 5 -48 68 -48 63 0 97 19 125 68 22 40
242 597 242 614 0 5 -19 8 -42 6 -46 -3 -31 26 -128 -241 -25 -71 -46 -114
-50 -106 -4 6 -36 88 -71 180 l-64 169 -47 0 c-45 0 -47 -1 -39 -22z"/>
<path d="M6040 780 l0 -230 40 0 40 0 0 230 0 230 -40 0 -40 0 0 -230z"/>
</g>
</svg>
